<svg width="500" height="400" viewBox="0 0 500 400" fill="none" xmlns="http://www.w3.org/2000/svg">
  <rect width="500" height="400" rx="12" fill="#1E293B"/> <!-- slate-800 -->
  <rect x="20" y="20" width="460" height="60" rx="8" fill="#334155"/> <!-- slate-700 -->
  <circle cx="50" cy="50" r="10" fill="#4F46E5"/> <!-- indigo-600 -->
  <rect x="80" y="40" width="100" height="20" rx="4" fill="#64748B"/> <!-- slate-500 -->

  <rect x="20" y="100" width="220" height="280" rx="8" fill="#0F172A"/> <!-- slate-900 -->
  <rect x="40" y="120" width="180" height="30" rx="4" fill="#334155"/>
  <rect x="40" y="160" width="120" height="20" rx="4" fill="#475569"/>
  <rect x="40" y="190" width="180" height="10" rx="2" fill="#475569"/>
  <rect x="40" y="210" width="180" height="10" rx="2" fill="#475569"/>

  <rect x="260" y="100" width="220" height="130" rx="8" fill="#0F172A"/>
  <rect x="280" y="120" width="180" height="30" rx="4" fill="#334155"/>
  <rect x="280" y="160" width="120" height="20" rx="4" fill="#475569"/>

  <rect x="260" y="250" width="220" height="130" rx="8" fill="#0F172A"/>
  <rect x="280" y="270" width="180" height="30" rx="4" fill="#334155"/>
  <rect x="280" y="310" width="120" height="20" rx="4" fill="#475569"/>

  <path d="M50 300 Q 150 250 250 300 T 450 300" stroke="#4F46E5" stroke-width="4" fill="none" stroke-linecap="round"/>
  <circle cx="100" cy="350" r="15" fill="#0EA5E9"/> <!-- sky-500 -->
  <circle cx="400" cy="350" r="15" fill="#0EA5E9"/>
</svg> 